<svg xmlns="http://www.w3.org/2000/svg" width="1200" height="560" viewBox="0 0 1200 560" role="img" aria-labelledby="title desc">
  <title id="title">CVsible</title>
  <desc id="desc">Make your experience visible. A free bilingual resume builder with live preview and PDF export.</desc>
  <defs>
    <linearGradient id="bg" x1="0" y1="0" x2="1" y2="1">
      <stop offset="0" stop-color="#fff9f7"/>
      <stop offset="0.52" stop-color="#f5e6e5"/>
      <stop offset="1" stop-color="#e7cdd2"/>
    </linearGradient>
    <filter id="shadow" x="-20%" y="-20%" width="140%" height="140%">
      <feDropShadow dx="0" dy="18" stdDeviation="24" flood-color="#52222e" flood-opacity="0.18"/>
    </filter>
  </defs>
  <rect width="1200" height="560" rx="34" fill="url(#bg)"/>
  <circle cx="1070" cy="80" r="170" fill="#a9435a" opacity="0.08"/>
  <circle cx="1120" cy="510" r="260" fill="#a9435a" opacity="0.07"/>
  <g transform="translate(92 86)">
    <rect width="98" height="98" rx="28" fill="#a9435a" filter="url(#shadow)"/>
    <text x="49" y="64" text-anchor="middle" font-family="Arial, Helvetica, sans-serif" font-size="42" font-weight="800" fill="#fff">CV</text>
    <text x="0" y="180" font-family="Arial, Helvetica, sans-serif" font-size="88" font-weight="800" letter-spacing="-3" fill="#241b1d">CVsible</text>
    <text x="3" y="230" font-family="Arial, Helvetica, sans-serif" font-size="30" font-weight="500" fill="#69454d">Make your experience visible.</text>
    <text x="3" y="285" font-family="Arial, Helvetica, sans-serif" font-size="22" fill="#72575d">Free bilingual resume builder with live preview and PDF export.</text>
    <g transform="translate(0 340)" font-family="Arial, Helvetica, sans-serif" font-size="18" font-weight="700" fill="#5a303a">
      <rect x="0" y="0" width="166" height="48" rx="24" fill="#fff" fill-opacity="0.78"/>
      <text x="83" y="31" text-anchor="middle">Live preview</text>
      <rect x="182" y="0" width="132" height="48" rx="24" fill="#fff" fill-opacity="0.78"/>
      <text x="248" y="31" text-anchor="middle">EL / EN</text>
      <rect x="330" y="0" width="154" height="48" rx="24" fill="#fff" fill-opacity="0.78"/>
      <text x="407" y="31" text-anchor="middle">A4 PDF</text>
      <rect x="500" y="0" width="202" height="48" rx="24" fill="#fff" fill-opacity="0.78"/>
      <text x="601" y="31" text-anchor="middle">No account</text>
    </g>
  </g>
  <g transform="translate(840 110) rotate(4)" filter="url(#shadow)">
    <rect width="250" height="340" rx="16" fill="#fff"/>
    <rect width="83" height="340" rx="16" fill="#a9435a"/>
    <rect x="67" width="16" height="340" fill="#a9435a"/>
    <circle cx="42" cy="58" r="25" fill="#fff" opacity="0.9"/>
    <rect x="18" y="104" width="48" height="7" rx="3.5" fill="#fff" opacity="0.92"/>
    <rect x="18" y="121" width="39" height="5" rx="2.5" fill="#fff" opacity="0.65"/>
    <rect x="18" y="160" width="42" height="6" rx="3" fill="#fff" opacity="0.9"/>
    <rect x="18" y="180" width="50" height="5" rx="2.5" fill="#fff" opacity="0.55"/>
    <rect x="18" y="196" width="43" height="5" rx="2.5" fill="#fff" opacity="0.55"/>
    <rect x="108" y="48" width="111" height="12" rx="6" fill="#2e2527"/>
    <rect x="108" y="70" width="72" height="7" rx="3.5" fill="#a9435a"/>
    <rect x="108" y="104" width="94" height="7" rx="3.5" fill="#2e2527"/>
    <rect x="108" y="126" width="116" height="5" rx="2.5" fill="#b7adb0"/>
    <rect x="108" y="140" width="106" height="5" rx="2.5" fill="#b7adb0"/>
    <rect x="108" y="154" width="113" height="5" rx="2.5" fill="#b7adb0"/>
    <rect x="108" y="194" width="102" height="7" rx="3.5" fill="#2e2527"/>
    <rect x="108" y="216" width="118" height="5" rx="2.5" fill="#b7adb0"/>
    <rect x="108" y="230" width="95" height="5" rx="2.5" fill="#b7adb0"/>
    <rect x="108" y="244" width="110" height="5" rx="2.5" fill="#b7adb0"/>
  </g>
  <text x="92" y="510" font-family="Arial, Helvetica, sans-serif" font-size="19" font-weight="700" fill="#a9435a">cvsible.vercel.app</text>
</svg>
